<svg width="25" height="26" viewBox="0 0 25 26" fill="none" xmlns="http://www.w3.org/2000/svg">
<path d="M3.78227 6.07082C11.0327 4.36956 20.0466 4.47387 22.1299 6.69105C24.2131 8.90824 24.1702 16.322 21.735 18.3562C19.3012 20.3905 8.73155 20.5839 5.38303 18.3562C1.8453 16.0014 3.89797 8.75741 3.78227 4.36956C3.85169 1.91419 1 1.51599 1 1.51599" stroke="#323232" stroke-width="2" stroke-linecap="round" stroke-linejoin="round"/>
<path d="M15.3005 11.5278H19.0751" stroke="#323232" stroke-width="2" stroke-linecap="round" stroke-linejoin="round"/>
<path fill-rule="evenodd" clip-rule="evenodd" d="M5.91909 23.4963C6.32745 23.4963 6.65958 23.8068 6.65958 24.1884C6.65958 24.5714 6.32745 24.8818 5.91909 24.8818C5.50938 24.8818 5.17725 24.5714 5.17725 24.1884C5.17725 23.8068 5.50938 23.4963 5.91909 23.4963Z" fill="black" stroke="#323232" stroke-width="2" stroke-linecap="round" stroke-linejoin="round"/>
<path fill-rule="evenodd" clip-rule="evenodd" d="M19.9822 23.4963C20.3919 23.4963 20.724 23.8068 20.724 24.1884C20.724 24.5714 20.3919 24.8818 19.9822 24.8818C19.5738 24.8818 19.2417 24.5714 19.2417 24.1884C19.2417 23.8068 19.5738 23.4963 19.9822 23.4963Z" fill="black" stroke="#323232" stroke-width="2" stroke-linecap="round" stroke-linejoin="round"/>
</svg>
